# xmcd CD database generated by RipIT
#
# Track frame offsets:
# 150
# 14391
# 31752
# 47281
# 65187
# 90040
# 107412
# 124568
# 138173
# 150601
# 166933
#
# Disc length: 2368 seconds
#
# Revision: 0
# Processed by: cddbd v1.5.2PL0 Copyright (c) Steve Scherf et al.
# Submitted via: RipIT 3.4.2.4 www.suwald.com/ripit/ripit.html at Mon Jun  9 01:55:26 CDT 2008
#
DISCID=74093e0b
DTITLE=Perry Weber And The DeVilles - Savage Beauty
DYEAR=2007
DGENRE=Blues
TTITLE0=Gimme Back What I Bought Ya'
TTITLE1=I Started Up Again
TTITLE2=We're Two Of A Kind
TTITLE3=Do Your Duty, Judy
TTITLE4=Lonesome Whistle Blues
TTITLE5=Hot Tounge and Cold Shoulder
TTITLE6=Big Fat Woman
TTITLE7=International Man
TTITLE8=Ten Long Years
TTITLE9=Your Cheatin' Heart
TTITLE10=Just a Barkin'
EXTD=
EXTT0=
EXTT1=
EXTT2=
EXTT3=
EXTT4=
EXTT5=
EXTT6=
EXTT7=
EXTT8=
EXTT9=
EXTT10=
PLAYORDER=
